<svg width="35" height="35" viewBox="0 0 35 35" fill="none" xmlns="http://www.w3.org/2000/svg">
<path d="M17.5003 6.41209L15.9318 4.69243C12.2501 0.655778 5.49931 2.04877 3.06236 7.12376C1.91827 9.51075 1.66013 12.9571 3.74926 17.3554C5.76182 21.5904 9.94882 26.663 17.5003 32.1883C25.0518 26.663 29.2366 21.5904 31.2513 17.3554C33.3405 12.9547 33.0845 9.51075 31.9382 7.12376C29.5013 2.04877 22.7505 0.653445 19.0688 4.6901L17.5003 6.41209ZM17.5003 35C-16.0417 11.3587 7.1728 -7.0932 17.1153 2.6671C17.2465 2.79544 17.3756 2.92844 17.5003 3.0661C17.6237 2.92856 17.7522 2.79624 17.8853 2.66944C27.8256 -7.09786 51.0423 11.3564 17.5003 35Z" fill="#1F415C"/>
</svg>
