<svg width="30" height="30" viewBox="0 0 30 30" fill="none" xmlns="http://www.w3.org/2000/svg">
<path d="M5.37113 28.7001C5.22488 29.588 6.04611 30.282 6.76985 29.886L15.001 25.3744L23.2302 29.886C23.9539 30.282 24.7751 29.588 24.6289 28.7021L23.0727 19.2428L29.6763 12.5313C30.295 11.9034 29.9763 10.7555 29.1476 10.6315L19.964 9.23958L15.8691 0.586243C15.7911 0.410834 15.668 0.262634 15.5141 0.15886C15.3603 0.0550867 15.182 0 15 0C14.818 0 14.6397 0.0550867 14.4859 0.15886C14.332 0.262634 14.209 0.410834 14.131 0.586243L10.036 9.24158L0.85246 10.6335C0.0255997 10.7575 -0.295019 11.9054 0.321844 12.5333L6.92735 19.2448L5.37113 28.7041V28.7001ZM14.5678 23.1665L7.65671 26.9542L8.95794 19.0408C8.98842 18.8587 8.97649 18.6713 8.9232 18.4952C8.86991 18.3191 8.7769 18.1597 8.65232 18.0309L3.20367 12.4913L10.801 11.3394C10.9583 11.3141 11.1076 11.2484 11.2359 11.1481C11.3642 11.0478 11.4679 10.9158 11.5379 10.7635L14.9972 3.44802L18.4603 10.7635C18.5303 10.9158 18.6339 11.0478 18.7623 11.1481C18.8906 11.2484 19.0398 11.3141 19.1971 11.3394L26.7945 12.4893L21.3458 18.0289C21.221 18.1579 21.1278 18.3177 21.0745 18.4941C21.0212 18.6706 21.0094 18.8584 21.0402 19.0408L22.3414 26.9542L15.4303 23.1665C15.2967 23.093 15.1485 23.0547 14.9981 23.0547C14.8478 23.0547 14.7015 23.093 14.5678 23.1665Z" fill="#1F415C"/>
</svg>
